# xmcd
#
# Track frame offsets:
#       150
#       15450
#       33497
#       53705
#       73477
#       89525
#       109223
#       127070
#       147486
#       163451
#       187686
#       205691
#       230028
#       249807
#       268807
#       283716
#       304003
#       325153
#
# Disc length: 4502 seconds
#
# Revision: 8
# Processed by: cddbd v1.5.1PL2 Copyright (c) Steve Scherf et al.
# Submitted via: WaveLab 4.01
#
DISCID=0f119412
DTITLE=BMG Indonesia - Cafe R and B
DYEAR=2003
DGENRE=R and B
TTITLE0=01. Walking Away - Craig David
TTITLE1=02. Show Me The Way Back To Youyr Heart - Brian McKnight
TTITLE2=03. If You Had My Love - Jennifer Lopez
TTITLE3=04. Maria Maria - Santana
TTITLE4=05. Fallin - Alicia Keys
TTITLE5=06. No Woman Bo Cry - Fugees
TTITLE6=07. I Try - Macy Gray
TTITLE7=08. Unbreak My Heart - Tony Braxton
TTITLE8=09. Take You Out  - Luther  Vandross
TTITLE9=10. All My Life - K.Cl and Jojo
TTITLE10=11. Emotion - Destiny Child
TTITLE11=12. I Believe I Can Fly - R.Kelly
TTITLE12=13. You Know That I Love You - Donell Jones
TTITLE13=14. Angel Of Mine - Monica
TTITLE14=15. Hard To  Say  I'm Sorry - Azyet
TTITLE15=16. Close Your Eyes - Sisqo
TTITLE16=17.Unpretty - TLC
TTITLE17=18. I Fell Good - James Brown
EXTD=
EXTT0=
EXTT1=
EXTT2=
EXTT3=
EXTT4=
EXTT5=
EXTT6=
EXTT7=
EXTT8=
EXTT9=
EXTT10=
EXTT11=
EXTT12=
EXTT13=
EXTT14=
EXTT15=
EXTT16=
EXTT17=
PLAYORDER=
